<?xml version="1.0" encoding="UTF-8"?>
<svg version="1.1" xmlns="http://www.w3.org/2000/svg" width="512" height="512">
<path d="M0 0 C56.61232873 -0.80606068 56.61232873 -0.80606068 80.36328125 -0.9765625 C85.78988797 -1.01583185 91.21648406 -1.05612397 96.64306641 -1.09863281 C97.3231311 -1.10390779 98.00319579 -1.10918276 98.70386851 -1.11461759 C109.66086561 -1.20143422 120.61574785 -1.35900495 131.57149388 -1.54305592 C142.82854815 -1.7305809 154.0845531 -1.83977993 165.34324729 -1.8817699 C171.6626405 -1.90779153 177.97725275 -1.96866805 184.2951088 -2.11460114 C190.2508272 -2.25104634 196.19983039 -2.2921119 202.15696335 -2.26215363 C204.33485792 -2.26762732 206.51299175 -2.3070477 208.68952942 -2.3841095 C224.6341136 -2.92063777 224.6341136 -2.92063777 230.20661688 1.91471958 C234.35646045 6.64708424 237.49912888 11.87037272 240.51115584 17.37555933 C242.95878949 21.6900937 245.83561691 25.69669723 248.6875 29.75 C249.76931106 31.33040202 250.84904263 32.91223149 251.92578125 34.49609375 C254.2950337 37.96996499 256.67271942 41.43784079 259.05883789 44.90014648 C259.93124218 46.16773001 260.80154928 47.43675966 261.66967773 48.70727539 C264.4255337 52.73723079 267.22616895 56.73156793 270.0546875 60.7109375 C271.45328061 62.70301576 272.85171903 64.69520263 274.25 66.6875 C274.9311084 67.63278564 275.6122168 68.57807129 276.31396484 69.55200195 C276.9373877 70.4462085 277.56081055 71.34041504 278.203125 72.26171875 C278.76676758 73.05537842 279.33041016 73.84903809 279.91113281 74.66674805 C281.2904584 77.62240155 281.02911797 78.94311338 280 82 C278.99121094 83.82666016 278.99121094 83.82666016 277.734375 85.5390625 C277.26354492 86.19148926 276.79271484 86.84391602 276.30761719 87.51611328 C275.79360352 88.2120459 275.27958984 88.90797852 274.75 89.625 C273.64448625 91.15527773 272.54036718 92.68656379 271.4375 94.21875 C270.58091797 95.40404297 270.58091797 95.40404297 269.70703125 96.61328125 C266.99268139 100.40840199 264.37180979 104.26563405 261.75 108.125 C256.21666024 116.24667762 250.61912505 124.32221743 244.99511719 132.38134766 C244.37540039 133.26999512 243.75568359 134.15864258 243.1171875 135.07421875 C242.48927464 135.93721588 241.86136179 136.80021301 241.21442127 137.68936157 C239.56931755 140.14885005 238.27026447 142.39040548 236.97139263 145.01483154 C231.3710955 155.60937718 231.3710955 155.60937718 225.78399301 157.91413307 C219.21253728 159.37357031 212.50726833 159.00477624 205.8215332 158.81640625 C203.57363713 158.81188825 201.32571748 158.81443587 199.07783508 158.82348633 C192.99807991 158.828064 186.9234099 158.73424003 180.84483361 158.62230301 C174.48431958 158.52204665 168.1236792 158.5128654 161.76249695 158.49389648 C151.09335366 158.44986982 140.4262114 158.35004653 129.75805664 158.20703125 C118.77475054 158.05994512 107.7919528 157.94698622 96.80786133 157.87890625 C96.12281861 157.87461829 95.43777589 157.87033033 94.7319743 157.86591244 C88.77217194 157.82890201 82.81235537 157.79445952 76.8525362 157.76026917 C51.2332763 157.60997275 25.6189429 157.29119329 0 157 C0 105.19 0 53.38 0 0 Z " fill="#000000" transform="translate(0,178)"/>
<path d="M0 0 C74.91 0 149.82 0 227 0 C227 51.81 227 103.62 227 157 C152.09 157 77.18 157 0 157 C0 105.19 0 53.38 0 0 Z " fill="#FF6C00" transform="translate(285,177)"/>
<path d="M0 0 C1.78653044 1.08799955 3.54132881 2.23090281 5.25 3.4375 C6.36568359 4.16259766 6.36568359 4.16259766 7.50390625 4.90234375 C14.3812734 10.03100654 19.24399093 18.19861021 20.61083984 26.67529297 C21.71134151 38.64482256 19.76554486 47.91622808 12.625 57.6875 C6.50441458 64.93646151 -1.37738995 69.57200875 -10.89624023 70.68945312 C-23.10393966 71.51860584 -32.08579568 70.31295476 -42.04296875 62.6796875 C-49.58629104 55.91475681 -54.0815193 46.55204461 -55.0234375 36.52734375 C-55.3782185 25.51548729 -52.62299687 17.4037991 -45.4375 9 C-33.88801996 -2.95236888 -15.47290605 -7.41987183 0 0 Z " fill="#FAFAFA" transform="translate(191.75,222.5625)"/>
<path d="M0 0 C0.57105469 0.45890625 1.14210938 0.9178125 1.73046875 1.390625 C0.05817174 5.35031676 -2.63258119 8.4067451 -5.39453125 11.640625 C-5.86246094 12.19492188 -6.33039063 12.74921875 -6.8125 13.3203125 C-7.96128453 14.68009826 -9.11492778 16.03577665 -10.26953125 17.390625 C-13.32026539 16.24466395 -15.62594826 15.14331524 -18.33203125 13.265625 C-23.29612346 10.38079071 -28.71933137 10.50413474 -34.26953125 11.390625 C-37.94547135 13.07782407 -39.85022633 15.78962128 -42.14453125 19.078125 C-43.87467549 24.17243859 -44.36276399 29.29313224 -42.54296875 34.44921875 C-40.1342422 39.00229942 -36.84556405 42.1026086 -32.26953125 44.390625 C-27.22577806 44.69414289 -22.17692751 44.699264 -17.26953125 43.390625 C-17.26953125 41.740625 -17.26953125 40.090625 -17.26953125 38.390625 C-21.88953125 38.390625 -26.50953125 38.390625 -31.26953125 38.390625 C-31.26953125 32.120625 -31.26953125 25.850625 -31.26953125 19.390625 C-20.04953125 19.390625 -8.82953125 19.390625 2.73046875 19.390625 C2.95734375 24.85625 3.18421875 30.321875 3.41796875 35.953125 C3.51811279 37.66443604 3.61825684 39.37574707 3.72143555 41.13891602 C4.08854495 51.87525993 4.08854495 51.87525993 0.43066406 55.95678711 C-2.4189821 57.80097302 -5.11561489 59.14660502 -8.26953125 60.390625 C-9.74860962 61.04526733 -9.74860962 61.04526733 -11.25756836 61.71313477 C-20.77711241 65.73829518 -33.14248764 66.34527543 -42.89453125 62.703125 C-44.37786531 61.98157098 -45.83984245 61.21337044 -47.26953125 60.390625 C-47.91148438 60.02839844 -48.5534375 59.66617188 -49.21484375 59.29296875 C-57.3057874 54.12667356 -62.57959683 45.24109742 -64.8515625 36.03125 C-66.68751995 24.43211695 -65.25879266 14.57029385 -58.5078125 4.85546875 C-43.27665543 -13.65054156 -18.560814 -14.04602141 0 0 Z " fill="#FAFAFA" transform="translate(116.26953125,228.609375)"/>
<path d="M0 0 C20.13 0 40.26 0 61 0 C61 6.6 61 13.2 61 20 C54.4 20 47.8 20 41 20 C41 37.16 41 54.32 41 72 C34.07 72 27.14 72 20 72 C20 54.84 20 37.68 20 20 C13.4 20 6.8 20 0 20 C0 13.4 0 6.8 0 0 Z " fill="#FFF9F5" transform="translate(389,221)"/>
<path d="M0 0 C6.6 0 13.2 0 20 0 C20 23.43 20 46.86 20 71 C13.4 71 6.8 71 0 71 C0 47.57 0 24.14 0 0 Z " fill="#FFFEFD" transform="translate(353,222)"/>
<path d="M0 0 C4.34206457 2.00091409 7.25978875 4.14300576 9.84375 8.27734375 C11.57211237 13.81757381 12.26653295 20.35538682 9.6796875 25.66796875 C6.99767993 29.38151769 4.21486761 32.68784644 -0.15625 34.27734375 C-5.1259544 34.93718686 -8.92679993 34.8804702 -13.46875 32.65234375 C-14.355625 31.86859375 -15.2425 31.08484375 -16.15625 30.27734375 C-17.105 29.51421875 -18.05375 28.75109375 -19.03125 27.96484375 C-22.41583126 23.64010103 -21.94605175 18.16729308 -21.78125 12.9296875 C-20.85893531 7.53991106 -18.50309752 4.48446906 -14.15625 1.27734375 C-9.59087305 -1.40659856 -4.98361322 -1.67023269 0 0 Z " fill="#050505" transform="translate(180.15625,239.72265625)"/>
<path d="M0 0 C3.11706204 1.60329301 5.95854374 3.45132476 8.88671875 5.375 C14.03543352 8.06240947 19.28317058 8.06454485 25 8 C25 8.33 25 8.66 25 9 C13.78 9 2.56 9 -9 9 C-9 15.27 -9 21.54 -9 28 C-4.38 28 0.24 28 5 28 C5 29.65 5 31.3 5 33 C0.21204363 35.55357673 -4.71237449 35.68008045 -10 35 C-14.87679522 32.60760989 -17.80955604 29.28431045 -21 25 C-22.66881717 19.9935485 -23.09634876 14.67035985 -21.05859375 9.70703125 C-15.83146665 0.97330479 -10.21577593 -1.89545722 0 0 Z " fill="#0C0C0C" transform="translate(94,239)"/>
</svg>
